<svg xmlns="http://www.w3.org/2000/svg" width="128" height="128" viewBox="0 0 128 128">
  <title>HIERARCHY STRUCTURE</title>
  <g>
    <g>
      <path d="M92.349,60.879H65.75V51.191a1.75,1.75,0,0,0-3.5,0v9.688h-26.6a6,6,0,0,0-6,6v5.281a1.75,1.75,0,0,0,3.5,0V66.876a2.5,2.5,0,0,1,2.5-2.5h26.6V81.788a1.75,1.75,0,1,0,3.5,0V64.379h26.6a2.5,2.5,0,0,1,2.5,2.5v5.281a1.75,1.75,0,0,0,3.5,0V66.876A6,6,0,0,0,92.349,60.879Z" fill="#01456b"/>
      <rect x="46.685" y="30.004" width="34.631" height="21.188" rx="4.41" fill="#80bfbe"/>
      <rect x="22.954" y="72.969" width="16.901" height="8.819" rx="4.41" fill="#b8d8d3"/>
      <rect x="55.549" y="81.788" width="16.901" height="8.819" rx="4.41" fill="#b8d8d3"/>
      <rect x="88.145" y="72.969" width="16.901" height="8.819" rx="4.41" fill="#b8d8d3"/>
    </g>
    <g>
      <path d="M60,31.754h1.375a1.75,1.75,0,0,0,0-3.5H60a1.75,1.75,0,0,0,0,3.5Z" fill="#172956"/>
      <path d="M100.637,71.22H98.346V66.876a6,6,0,0,0-6-6H65.75V52.941H76.906a6.165,6.165,0,0,0,6.159-6.159V34.413a6.165,6.165,0,0,0-6.159-6.159H66.875a1.75,1.75,0,0,0,0,3.5H76.906a2.662,2.662,0,0,1,2.659,2.659V46.782a2.662,2.662,0,0,1-2.659,2.659H51.094a2.662,2.662,0,0,1-2.659-2.659V34.413a2.662,2.662,0,0,1,2.659-2.659H53.75a1.75,1.75,0,0,0,0-3.5H51.094a6.165,6.165,0,0,0-6.159,6.159V46.782a6.165,6.165,0,0,0,6.159,6.159H62.25v7.938h-26.6a6,6,0,0,0-6,6V71.22H27.363a6.159,6.159,0,0,0,0,12.318h8.082a6.159,6.159,0,1,0,0-12.318H33.154V66.876a2.5,2.5,0,0,1,2.5-2.5h26.6V80.038H59.959a6.16,6.16,0,0,0,0,12.319h8.082a6.16,6.16,0,1,0,0-12.319H65.75V64.379h26.6a2.5,2.5,0,0,1,2.5,2.5V71.22H92.555a6.159,6.159,0,0,0,0,12.318h8.082a6.159,6.159,0,1,0,0-12.318ZM38.1,77.379a2.662,2.662,0,0,1-2.66,2.659H27.363a2.659,2.659,0,0,1,0-5.318h8.082A2.662,2.662,0,0,1,38.1,77.379ZM70.7,86.2a2.662,2.662,0,0,1-2.66,2.659H59.959a2.66,2.66,0,0,1,0-5.319h8.082A2.663,2.663,0,0,1,70.7,86.2Zm29.936-6.16H92.555a2.659,2.659,0,0,1,0-5.318h8.082a2.659,2.659,0,1,1,0,5.318Z" fill="#172956"/>
    </g>
  </g>
</svg>
